<?xml version="1.0" standalone="no"?>
<!DOCTYPE svg PUBLIC "-//W3C//DTD SVG 20010904//EN"
 "http://www.w3.org/TR/2001/REC-SVG-20010904/DTD/svg10.dtd">
<svg version="1.0" xmlns="http://www.w3.org/2000/svg"
 width="700.000000pt" height="700.000000pt" viewBox="0 0 700.000000 700.000000"
 preserveAspectRatio="xMidYMid meet">
<metadata>
Created by potrace 1.11, written by Peter Selinger 2001-2013
</metadata>
<g transform="translate(0.000000,700.000000) scale(0.100000,-0.100000)"
fill="#000000" stroke="none">
<path d="M874 6985 c-95 -17 -222 -59 -303 -100 -255 -128 -459 -383 -538
-670 l-28 -100 0 -2590 c0 -1424 3 -2610 7 -2635 54 -334 265 -624 566 -777
65 -33 192 -79 246 -89 17 -3 54 -9 81 -14 59 -11 5189 -8 5225 2 14 4 48 13
75 19 87 21 237 87 321 143 229 153 366 347 447 636 l21 75 2 2585 c2 2759 4
2641 -46 2797 -52 163 -133 296 -255 419 -126 127 -255 207 -420 262 -160 54
-14 51 -2775 51 -2044 -1 -2569 -3 -2626 -14z"/>
</g>
</svg>
