<?xml version="1.0" standalone="no"?>
<!DOCTYPE svg PUBLIC "-//W3C//DTD SVG 20010904//EN"
 "http://www.w3.org/TR/2001/REC-SVG-20010904/DTD/svg10.dtd">
<svg version="1.0" xmlns="http://www.w3.org/2000/svg"
 width="700.000000pt" height="700.000000pt" viewBox="0 0 700.000000 700.000000"
 preserveAspectRatio="xMidYMid meet">
<metadata>
Created by potrace 1.11, written by Peter Selinger 2001-2013
</metadata>
<g transform="translate(0.000000,700.000000) scale(0.100000,-0.100000)"
fill="#000000" stroke="none">
<path d="M4025 6863 c-134 -28 -296 -111 -455 -231 -91 -69 -333 -309 -416
-412 -71 -89 -142 -186 -213 -293 -56 -83 -161 -286 -161 -309 0 -8 -4 -18 -9
-23 -14 -15 -52 -161 -66 -255 -12 -82 -13 -250 -1 -317 3 -18 8 -46 11 -61
19 -111 80 -280 171 -470 l63 -133 -84 -167 c-220 -442 -395 -873 -536 -1324
-27 -90 -52 -170 -54 -178 -3 -8 -14 -49 -25 -90 -43 -157 -62 -230 -95 -377
-45 -197 -92 -440 -110 -568 -3 -23 -7 -50 -9 -61 -2 -11 -9 -63 -16 -117 -12
-94 -29 -130 -31 -64 0 17 -2 40 -4 50 -2 10 -6 55 -10 100 -3 45 -8 93 -10
107 -2 14 -6 63 -10 110 -3 47 -8 105 -11 130 -5 47 -8 93 -21 325 -16 282 -9
997 12 1250 6 80 16 181 20 215 2 19 7 60 10 90 5 46 40 281 61 410 17 109 73
338 133 545 30 104 99 292 149 405 21 48 27 120 13 163 -36 107 -156 158 -263
113 -50 -21 -83 -65 -125 -166 -19 -47 -41 -97 -49 -112 -8 -14 -14 -32 -14
-40 0 -8 -11 -42 -25 -75 -76 -188 -205 -732 -240 -1013 -2 -19 -7 -51 -9 -70
-9 -62 -14 -104 -22 -175 -3 -38 -8 -81 -10 -95 -1 -14 -5 -63 -9 -110 -8 -96
-14 -173 -15 -178 0 -2 -29 53 -64 122 -36 70 -79 147 -95 172 -17 25 -31 48
-31 51 0 16 -117 158 -175 212 -117 109 -246 150 -393 125 -146 -25 -266 -125
-356 -298 -64 -123 -40 -202 79 -257 105 -49 206 -2 274 126 45 85 76 118 98
106 68 -37 217 -283 343 -566 12 -27 35 -78 51 -113 16 -35 29 -65 29 -68 0
-2 23 -52 51 -110 45 -93 58 -110 97 -135 25 -16 52 -29 59 -29 7 0 13 -3 14
-7 0 -5 2 -75 4 -158 6 -243 15 -443 30 -647 3 -38 7 -101 10 -140 3 -40 7
-91 10 -113 2 -22 7 -71 10 -110 3 -38 8 -83 10 -100 2 -16 6 -50 9 -75 3 -25
8 -67 11 -95 8 -80 26 -221 40 -310 3 -16 7 -52 10 -80 3 -27 10 -72 15 -100
5 -27 12 -70 15 -95 3 -25 15 -97 26 -160 11 -63 22 -131 25 -150 9 -59 23
-94 51 -126 54 -61 143 -85 214 -57 32 12 41 12 70 0 37 -15 98 -14 129 3 15
8 31 7 63 -4 78 -26 160 0 212 68 16 22 32 65 45 126 49 229 255 652 609 1252
122 207 389 612 523 795 58 79 44 71 467 284 218 110 354 140 419 93 68 -50
107 -194 118 -436 5 -135 28 -184 104 -227 35 -20 137 -23 172 -5 45 23 95 82
106 123 12 48 5 259 -12 346 -2 11 -7 40 -11 65 -10 69 -53 198 -88 265 -44
82 -146 184 -227 225 -110 55 -252 68 -395 35 -33 -7 -61 -13 -62 -12 -3 3
106 128 207 237 165 180 419 427 565 551 22 19 42 37 45 40 3 3 59 48 125 100
146 116 313 232 459 319 63 38 122 82 140 104 28 34 31 44 31 110 0 60 -4 78
-24 107 -56 82 -158 110 -246 67 -102 -49 -280 -163 -454 -290 -28 -21 -51
-35 -52 -30 0 4 -2 16 -4 27 -2 11 -7 43 -10 70 -5 44 -14 87 -44 201 -15 57
-85 177 -126 216 -58 57 -131 89 -213 95 -166 12 -331 -75 -542 -287 -231
-232 -498 -591 -603 -810 -44 -91 -105 -257 -113 -310 -3 -14 -7 -31 -9 -38
-22 -61 -25 -331 -6 -437 21 -116 55 -224 106 -339 13 -28 11 -33 -29 -85 -48
-64 -154 -214 -245 -346 -33 -49 -66 -97 -71 -105 -42 -60 -171 -261 -216
-335 -30 -49 -73 -119 -96 -155 -106 -171 -301 -524 -420 -760 -30 -60 -46
-84 -43 -65 2 17 7 64 10 105 3 41 8 86 10 100 2 14 7 50 10 80 3 30 8 66 10
80 11 65 14 88 20 130 5 38 19 121 40 245 15 87 50 252 72 345 13 58 27 116
29 129 9 46 65 246 114 411 117 391 252 742 438 1140 48 102 194 396 222 445
13 22 34 60 48 85 20 36 87 153 167 289 38 64 124 199 212 331 341 514 684
939 1123 1392 130 135 157 172 164 227 12 103 -74 207 -178 216 -11 1 -39 -2
-64 -8 -37 -8 -61 -24 -134 -95 -49 -47 -92 -82 -96 -76 -4 5 -20 29 -35 53
-50 76 -142 145 -236 176 -71 23 -198 27 -286 8z"/>
</g>
</svg>
